<svg width="19" height="23" viewBox="0 0 19 23" fill="none" xmlns="http://www.w3.org/2000/svg">
<path d="M6.625 3.56583L9.025 1.22498L11.2597 3.51836" stroke="#0184FF" stroke-miterlimit="10" stroke-linecap="round" stroke-linejoin="round"/>
<path d="M14.225 3.625H17.5357V6.86914" stroke="#0184FF" stroke-miterlimit="10" stroke-linecap="round" stroke-linejoin="round"/>
<path fill-rule="evenodd" clip-rule="evenodd" d="M6.85 11.625C6.85 11.9702 6.57018 12.25 6.225 12.25C5.87982 12.25 5.6 11.9702 5.6 11.625V9.39452L0.186751 4.0706C-0.0593494 3.82856 -0.0626417 3.43285 0.179397 3.18675C0.421435 2.94065 0.81715 2.93736 1.06325 3.1794L6.66325 8.68698C6.78272 8.80448 6.85 8.96502 6.85 9.13259V11.625ZM9.025 12.25C8.67982 12.25 8.4 11.9702 8.4 11.625L8.4 1.625C8.4 1.27982 8.67982 1 9.025 1C9.37018 1 9.65 1.27982 9.65 1.625L9.65 11.625C9.65 11.9702 9.37018 12.25 9.025 12.25ZM11.825 12.25C12.1702 12.25 12.45 11.9702 12.45 11.625V9.39452L17.8633 4.0706C18.1094 3.82856 18.1126 3.43285 17.8706 3.18675C17.6286 2.94065 17.2329 2.93736 16.9868 3.1794L11.3868 8.68698C11.2673 8.80448 11.2 8.96502 11.2 9.13259V11.625C11.2 11.9702 11.4798 12.25 11.825 12.25Z" fill="url(#paint0_linear_7063_667)"/>
<path d="M3.93569 3.625H0.625V6.86914" stroke="#0184FF" stroke-miterlimit="10" stroke-linecap="round" stroke-linejoin="round"/>
<path fill-rule="evenodd" clip-rule="evenodd" d="M4.3969 12.25V21.4H4.10159C3.75641 21.4 3.47659 21.6798 3.47659 22.025C3.47659 22.3702 3.75641 22.65 4.10159 22.65H5.0219H13.4219H14.6033C14.9485 22.65 15.2283 22.3702 15.2283 22.025C15.2283 21.6798 14.9485 21.4 14.6033 21.4H14.0469V12.25H14.3236C14.6688 12.25 14.9486 11.9702 14.9486 11.625C14.9486 11.2798 14.6688 11 14.3236 11H13.4263L13.4219 11L13.4175 11H5.02631L5.0219 11L5.01749 11H3.8219C3.47672 11 3.1969 11.2798 3.1969 11.625C3.1969 11.9702 3.47672 12.25 3.8219 12.25H4.3969ZM12.7969 21.4H5.6469V12.25H12.7969V21.4Z" fill="#0E2245"/>
<path d="M15.025 14.425C15.025 16.6341 13.4132 18.425 11.425 18.425C9.43679 18.425 7.82501 16.6341 7.82501 14.425" stroke="url(#paint1_linear_7063_667)" stroke-linecap="round"/>
<defs>
<linearGradient id="paint0_linear_7063_667" x1="9.025" y1="11.7193" x2="9.025" y2="3.6533" gradientUnits="userSpaceOnUse">
<stop stop-color="#0184FF" stop-opacity="0"/>
<stop offset="1" stop-color="#0184FF"/>
</linearGradient>
<linearGradient id="paint1_linear_7063_667" x1="14.0222" y1="17.425" x2="15.0222" y2="14.825" gradientUnits="userSpaceOnUse">
<stop stop-color="#0184FF"/>
<stop offset="1" stop-color="#0184FF" stop-opacity="0"/>
</linearGradient>
</defs>
</svg>
