<svg width="25" height="24" viewBox="0 0 25 24" fill="none" xmlns="http://www.w3.org/2000/svg">
<path fill-rule="evenodd" clip-rule="evenodd" d="M4.74219 2.15049C4.39701 2.15049 4.11719 2.43031 4.11719 2.77549C4.11719 3.12067 4.39701 3.40049 4.74219 3.40049L7.09455 3.40049C7.43973 3.40049 7.71955 3.12067 7.71955 2.77549C7.71955 2.43031 7.43973 2.15049 7.09455 2.15049H4.74219ZM2.38906 5.04669C2.04388 5.04669 1.76406 5.32651 1.76406 5.67169C1.76406 6.01686 2.04388 6.29669 2.38906 6.29669H7.06255C7.40773 6.29669 7.68755 6.01686 7.68755 5.67169C7.68755 5.32651 7.40773 5.04669 7.06255 5.04669H2.38906ZM0 11.4641C0 11.1189 0.279822 10.8391 0.625 10.8391L7.09399 10.8391C7.43917 10.8391 7.71899 11.1189 7.71899 11.4641C7.71899 11.8092 7.43917 12.0891 7.09399 12.0891L0.625 12.0891C0.279822 12.0891 0 11.8092 0 11.4641ZM3.56563 7.94287C3.22045 7.94287 2.94063 8.22269 2.94063 8.56787C2.94063 8.91305 3.22045 9.19287 3.56563 9.19287L7.09417 9.19287C7.43935 9.19287 7.71917 8.91305 7.71917 8.56787C7.71917 8.22269 7.43935 7.94287 7.09417 7.94287L3.56563 7.94287Z" fill="url(#paint0_linear_7063_685)"/>
<path d="M16.0101 15.1147C16.6018 15.9042 16.9501 16.8758 16.9501 17.9273C16.9501 20.5524 14.7692 22.7 12.0547 22.7C9.34019 22.7 7.15936 20.5524 7.15936 17.9273C7.15936 16.8758 7.50758 15.9042 8.09932 15.1147C8.70652 14.3045 9.3175 13.2941 9.3175 12.1302V3.16363C9.3175 1.70332 10.5321 0.5 12.0547 0.5C13.5773 0.5 14.7919 1.70332 14.7919 3.16363V12.1302C14.7919 13.2941 15.4029 14.3045 16.0101 15.1147Z" stroke="#0184FF"/>
<path d="M12.0531 17.8047L12.0531 7.55349" stroke="url(#paint1_linear_7063_685)" stroke-linecap="round" stroke-linejoin="round"/>
<path d="M24.119 7.20396C24.0016 7.20396 23.8936 7.17729 23.795 7.12396C23.699 7.06796 23.6216 6.99329 23.563 6.89996C23.5043 6.80396 23.475 6.69729 23.475 6.57996C23.475 6.46263 23.5043 6.35729 23.563 6.26396C23.6216 6.17063 23.699 6.09729 23.795 6.04396C23.8936 5.98796 24.0016 5.95996 24.119 5.95996C24.2363 5.95996 24.343 5.98663 24.439 6.03996C24.535 6.09329 24.6123 6.16796 24.671 6.26396C24.7296 6.35729 24.759 6.46263 24.759 6.57996C24.759 6.69729 24.7296 6.80396 24.671 6.89996C24.6123 6.99329 24.535 7.06796 24.439 7.12396C24.343 7.17729 24.2363 7.20396 24.119 7.20396ZM24.119 6.88396C24.2096 6.88396 24.283 6.85596 24.339 6.79996C24.395 6.74396 24.423 6.67063 24.423 6.57996C24.423 6.48929 24.395 6.41596 24.339 6.35996C24.283 6.30396 24.2096 6.27596 24.119 6.27596C24.0283 6.27596 23.955 6.30396 23.899 6.35996C23.843 6.41596 23.815 6.48929 23.815 6.57996C23.815 6.67063 23.843 6.74396 23.899 6.79996C23.955 6.85596 24.0283 6.88396 24.119 6.88396Z" fill="#0184FF"/>
<path d="M22.1614 8.83996C21.9721 8.83996 21.8108 8.81196 21.6774 8.75596C21.5441 8.69996 21.4348 8.62263 21.3494 8.52396C21.2641 8.42529 21.2001 8.31196 21.1574 8.18396C21.1148 8.05329 21.0894 7.91463 21.0814 7.76796C21.0788 7.69596 21.0761 7.61729 21.0734 7.53196C21.0734 7.44396 21.0734 7.35596 21.0734 7.26796C21.0761 7.17996 21.0788 7.09863 21.0814 7.02396C21.0868 6.87729 21.1121 6.73996 21.1574 6.61196C21.2028 6.48129 21.2681 6.36796 21.3534 6.27196C21.4414 6.17596 21.5521 6.09996 21.6854 6.04396C21.8188 5.98796 21.9774 5.95996 22.1614 5.95996C22.3481 5.95996 22.5081 5.98796 22.6414 6.04396C22.7748 6.09996 22.8841 6.17596 22.9694 6.27196C23.0574 6.36796 23.1228 6.48129 23.1654 6.61196C23.2108 6.73996 23.2361 6.87729 23.2414 7.02396C23.2468 7.09863 23.2494 7.17996 23.2494 7.26796C23.2494 7.35596 23.2494 7.44396 23.2494 7.53196C23.2494 7.61729 23.2468 7.69596 23.2414 7.76796C23.2361 7.91463 23.2121 8.05329 23.1694 8.18396C23.1268 8.31196 23.0628 8.42529 22.9774 8.52396C22.8921 8.62263 22.7814 8.69996 22.6454 8.75596C22.5121 8.81196 22.3508 8.83996 22.1614 8.83996ZM22.1614 8.37996C22.3348 8.37996 22.4614 8.32396 22.5414 8.21196C22.6241 8.09729 22.6668 7.94263 22.6694 7.74796C22.6748 7.67063 22.6774 7.59329 22.6774 7.51596C22.6774 7.43596 22.6774 7.35596 22.6774 7.27596C22.6774 7.19596 22.6748 7.11996 22.6694 7.04796C22.6668 6.85863 22.6241 6.70663 22.5414 6.59196C22.4614 6.47463 22.3348 6.41596 22.1614 6.41596C21.9908 6.41596 21.8641 6.47463 21.7814 6.59196C21.7014 6.70663 21.6588 6.85863 21.6534 7.04796C21.6534 7.11996 21.6521 7.19596 21.6494 7.27596C21.6494 7.35596 21.6494 7.43596 21.6494 7.51596C21.6521 7.59329 21.6534 7.67063 21.6534 7.74796C21.6588 7.94263 21.7028 8.09729 21.7854 8.21196C21.8681 8.32396 21.9934 8.37996 22.1614 8.37996Z" fill="#0184FF"/>
<path d="M19.7335 8.84C19.5468 8.84 19.3855 8.81733 19.2495 8.772C19.1135 8.72667 19.0002 8.668 18.9095 8.596C18.8215 8.52133 18.7548 8.44133 18.7095 8.356C18.6642 8.268 18.6402 8.18133 18.6375 8.096C18.6375 8.072 18.6455 8.05333 18.6615 8.04C18.6802 8.024 18.7015 8.016 18.7255 8.016H19.0855C19.1122 8.016 19.1348 8.02133 19.1535 8.032C19.1722 8.04267 19.1882 8.064 19.2015 8.096C19.2255 8.168 19.2642 8.22533 19.3175 8.268C19.3735 8.31067 19.4375 8.34133 19.5095 8.36C19.5815 8.376 19.6575 8.384 19.7375 8.384C19.8975 8.384 20.0242 8.34667 20.1175 8.272C20.2135 8.19467 20.2615 8.08533 20.2615 7.944C20.2615 7.80267 20.2175 7.70133 20.1295 7.64C20.0415 7.576 19.9188 7.544 19.7615 7.544H19.3495C19.3202 7.544 19.2962 7.536 19.2775 7.52C19.2588 7.50133 19.2495 7.47733 19.2495 7.448V7.28C19.2495 7.25333 19.2548 7.23067 19.2655 7.212C19.2788 7.19067 19.2922 7.17333 19.3055 7.16L20.0215 6.46H18.8775C18.8482 6.46 18.8242 6.45067 18.8055 6.432C18.7895 6.41333 18.7815 6.39067 18.7815 6.364V6.1C18.7815 6.07067 18.7895 6.04667 18.8055 6.028C18.8242 6.00933 18.8482 6 18.8775 6H20.5935C20.6228 6 20.6468 6.00933 20.6655 6.028C20.6842 6.04667 20.6935 6.07067 20.6935 6.1V6.34C20.6935 6.364 20.6882 6.38533 20.6775 6.404C20.6668 6.42267 20.6548 6.43867 20.6415 6.452L19.9495 7.164L19.9975 7.168C20.1602 7.18133 20.3042 7.21867 20.4295 7.28C20.5575 7.33867 20.6562 7.42533 20.7255 7.54C20.7975 7.65467 20.8335 7.79867 20.8335 7.972C20.8335 8.15333 20.7855 8.30933 20.6895 8.44C20.5962 8.568 20.4668 8.66667 20.3015 8.736C20.1362 8.80533 19.9468 8.84 19.7335 8.84Z" fill="#0184FF"/>
<path d="M17.9067 8.79996C17.8774 8.79996 17.8534 8.79063 17.8347 8.77196C17.8187 8.7533 17.8107 8.73063 17.8107 8.70396V6.63196L17.2027 7.09996C17.1787 7.11596 17.1547 7.12263 17.1307 7.11996C17.1067 7.11463 17.0854 7.09996 17.0667 7.07596L16.8987 6.85996C16.8827 6.83596 16.876 6.81063 16.8787 6.78396C16.884 6.7573 16.8987 6.73596 16.9227 6.71996L17.8187 6.02796C17.8347 6.01463 17.8507 6.00663 17.8667 6.00396C17.8827 6.0013 17.9 5.99996 17.9187 5.99996H18.2707C18.2974 5.99996 18.32 6.0093 18.3387 6.02796C18.3574 6.04663 18.3667 6.0693 18.3667 6.09596V8.70396C18.3667 8.73063 18.3574 8.7533 18.3387 8.77196C18.32 8.79063 18.2974 8.79996 18.2707 8.79996H17.9067Z" fill="#0184FF"/>
<defs>
<linearGradient id="paint0_linear_7063_685" x1="0.154391" y1="11.3246" x2="7.56516" y2="11.3246" gradientUnits="userSpaceOnUse">
<stop stop-color="#0184FF"/>
<stop offset="1" stop-color="#0184FF" stop-opacity="0"/>
</linearGradient>
<linearGradient id="paint1_linear_7063_685" x1="12.5531" y1="7.55349" x2="12.5531" y2="17.8047" gradientUnits="userSpaceOnUse">
<stop stop-color="#0E2245" stop-opacity="0"/>
<stop offset="1" stop-color="#0E2245"/>
</linearGradient>
</defs>
</svg>
